{"asset":{"version":"2.0","generator":"XZIEL complete XZRG/XZSK/XZAN -> Godot glTF bridge"},"scene":0,"scenes":[{"name":"untitled_Source","nodes":[0,8]}],"nodes":[{"name":"fxanim_zom_nuketown_shutters02_mod_LOD0","translation":[0.0,-0.0,0.0],"rotation":[-0.0,0.0,-0.0,1.0],"scale":[1.0,1.0,1.0],"children":[1]},{"name":"tag_origin","translation":[0.0,0.0,0.0],"rotation":[-0.0,-0.0,-0.0,-1.0],"scale":[1.0,1.0,1.0],"children":[2,4,6]},{"name":"shutter02_01_jnt","translation":[-4.177415370941162,-0.11618399620056152,0.3991827964782715],"rotation":[-0.0,-0.0,-0.0,-1.0],"scale":[1.0,1.0,1.0],"children":[3]},{"name":"shutter02_01_jnt_end","translation":[-3.67688244296005e-07,2.5058134269784205e-05,1.8924698252931194e-08],"rotation":[8.145814065802142e-08,-5.991569526713754e-10,-0.0073551988082515875,-0.9999729501593954],"scale":[1.0,1.0,1.0]},{"name":"shutter02_02_jnt","translation":[-1.5439845323562622,-0.11919952929019928,0.5375232100486755],"rotation":[-0.0,0.0,0.16387042836374852,-0.986481871454251],"scale":[0.9999999403953552,0.9999999403953552,1.0],"children":[5]},{"name":"shutter02_02_jnt_end","translation":[2.6480313408683287e-07,2.5094755983445793e-05,1.9416219743106922e-08],"rotation":[7.692970887288298e-08,2.6788185908264533e-08,0.0058592446184525145,-0.9999828344789198],"scale":[1.0,1.0,1.0]},{"name":"shutter02_03_jnt","translation":[3.651348114013672,-0.1070878654718399,0.39918434619903564],"rotation":[-0.0,-0.0,-0.0,-1.0],"scale":[1.0,1.0,1.0],"children":[7]},{"name":"shutter02_03_jnt_end","translation":[-4.035317999750987e-07,2.5057579478016123e-05,1.7442751243379462e-08],"rotation":[8.145768687972324e-08,-6.575685700003595e-10,-0.008072254430112762,-0.9999674188234379],"scale":[1.0,1.0,1.0]},{"name":"untitled_SourceMesh","mesh":0,"skin":0}],"meshes":[{"name":"untitled_SourceMesh","primitives":[{"attributes":{"POSITION":0,"NORMAL":1,"TANGENT":2,"TEXCOORD_0":3,"JOINTS_0":4,"WEIGHTS_0":5,"JOINTS_1":6,"WEIGHTS_1":7},"indices":10,"material":0,"mode":4},{"attributes":{"POSITION":0,"NORMAL":1,"TANGENT":2,"TEXCOORD_0":3,"JOINTS_0":4,"WEIGHTS_0":5,"JOINTS_1":6,"WEIGHTS_1":7},"indices":11,"material":1,"mode":4}]}],"skins":[{"name":"untitled_SourceSkin","joints":[0,1,2,3,4,5,6,7],"skeleton":0,"inverseBindMatrices":9}],"materials":[{"name":"SourceMaterial_00","pbrMetallicRoughness":{"baseColorFactor":[0.72,0.72,0.72,1.0],"metallicFactor":0.0,"roughnessFactor":0.75}},{"name":"SourceMaterial_01","pbrMetallicRoughness":{"baseColorFactor":[0.72,0.72,0.72,1.0],"metallicFactor":0.0,"roughnessFactor":0.75}}],"animations":[{"name":"untitled_Anim","samplers":[{"input":12,"output":13,"interpolation":"LINEAR"},{"input":14,"output":15,"interpolation":"LINEAR"},{"input":16,"output":17,"interpolation":"LINEAR"},{"input":18,"output":19,"interpolation":"LINEAR"},{"input":20,"output":21,"interpolation":"LINEAR"},{"input":22,"output":23,"interpolation":"LINEAR"},{"input":24,"output":25,"interpolation":"LINEAR"},{"input":26,"output":27,"interpolation":"LINEAR"},{"input":28,"output":29,"interpolation":"LINEAR"},{"input":30,"output":31,"interpolation":"LINEAR"},{"input":32,"output":33,"interpolation":"LINEAR"},{"input":34,"output":35,"interpolation":"LINEAR"},{"input":36,"output":37,"interpolation":"LINEAR"},{"input":38,"output":39,"interpolation":"LINEAR"},{"input":40,"output":41,"interpolation":"LINEAR"},{"input":42,"output":43,"interpolation":"LINEAR"},{"input":44,"output":45,"interpolation":"LINEAR"},{"input":46,"output":47,"interpolation":"LINEAR"},{"input":48,"output":49,"interpolation":"LINEAR"},{"input":50,"output":51,"interpolation":"LINEAR"},{"input":52,"output":53,"interpolation":"LINEAR"},{"input":54,"output":55,"interpolation":"LINEAR"},{"input":56,"output":57,"interpolation":"LINEAR"},{"input":58,"output":59,"interpolation":"LINEAR"}],"channels":[{"sampler":0,"target":{"node":0,"path":"translation"}},{"sampler":1,"target":{"node":0,"path":"rotation"}},{"sampler":2,"target":{"node":0,"path":"scale"}},{"sampler":3,"target":{"node":1,"path":"translation"}},{"sampler":4,"target":{"node":1,"path":"rotation"}},{"sampler":5,"target":{"node":1,"path":"scale"}},{"sampler":6,"target":{"node":2,"path":"translation"}},{"sampler":7,"target":{"node":2,"path":"rotation"}},{"sampler":8,"target":{"node":2,"path":"scale"}},{"sampler":9,"target":{"node":3,"path":"translation"}},{"sampler":10,"target":{"node":3,"path":"rotation"}},{"sampler":11,"target":{"node":3,"path":"scale"}},{"sampler":12,"target":{"node":4,"path":"translation"}},{"sampler":13,"target":{"node":4,"path":"rotation"}},{"sampler":14,"target":{"node":4,"path":"scale"}},{"sampler":15,"target":{"node":5,"path":"translation"}},{"sampler":16,"target":{"node":5,"path":"rotation"}},{"sampler":17,"target":{"node":5,"path":"scale"}},{"sampler":18,"target":{"node":6,"path":"translation"}},{"sampler":19,"target":{"node":6,"path":"rotation"}},{"sampler":20,"target":{"node":6,"path":"scale"}},{"sampler":21,"target":{"node":7,"path":"translation"}},{"sampler":22,"target":{"node":7,"path":"rotation"}},{"sampler":23,"target":{"node":7,"path":"scale"}}]}],"buffers":[{"byteLength":148208,"uri":"data:application/octet-stream;base64,"}],"bufferViews":[{"buffer":0,"byteOffset":0,"byteLength":16944,"target":34962},{"buffer":0,"byteOffset":16944,"byteLength":16944,"target":34962},{"buffer":0,"byteOffset":33888,"byteLength":22592,"target":34962},{"buffer":0,"byteOffset":56480,"byteLength":11296,"target":34962},{"buffer":0,"byteOffset":67776,"byteLength":11296,"target":34962},{"buffer":0,"byteOffset":79072,"byteLength":22592,"target":34962},{"buffer":0,"byteOffset":101664,"byteLength":11296,"target":34962},{"buffer":0,"byteOffset":112960,"byteLength":22592,"target":34962},{"buffer":0,"byteOffset":135552,"byteLength":9768,"target":34963},{"buffer":0,"byteOffset":145320,"byteLength":512},{"buffer":0,"byteOffset":145832,"byteLength":4},{"buffer":0,"byteOffset":145836,"byteLength":12},{"buffer":0,"byteOffset":145848,"byteLength":4},{"buffer":0,"byteOffset":145852,"byteLength":16},{"buffer":0,"byteOffset":145868,"byteLength":4},{"buffer":0,"byteOffset":145872,"byteLength":12},{"buffer":0,"byteOffset":145884,"byteLength":4},{"buffer":0,"byteOffset":145888,"byteLength":12},{"buffer":0,"byteOffset":145900,"byteLength":4},{"buffer":0,"byteOffset":145904,"byteLength":16},{"buffer":0,"byteOffset":145920,"byteLength":4},{"buffer":0,"byteOffset":145924,"byteLength":12},{"buffer":0,"byteOffset":145936,"byteLength":4},{"buffer":0,"byteOffset":145940,"byteLength":12},{"buffer":0,"byteOffset":145952,"byteLength":116},{"buffer":0,"byteOffset":146068,"byteLength":464},{"buffer":0,"byteOffset":146532,"byteLength":4},{"buffer":0,"byteOffset":146536,"byteLength":12},{"buffer":0,"byteOffset":146548,"byteLength":4},{"buffer":0,"byteOffset":146552,"byteLength":12},{"buffer":0,"byteOffset":146564,"byteLength":4},{"buffer":0,"byteOffset":146568,"byteLength":16},{"buffer":0,"byteOffset":146584,"byteLength":4},{"buffer":0,"byteOffset":146588,"byteLength":12},{"buffer":0,"byteOffset":146600,"byteLength":4},{"buffer":0,"byteOffset":146604,"byteLength":12},{"buffer":0,"byteOffset":146616,"byteLength":116},{"buffer":0,"byteOffset":146732,"byteLength":464},{"buffer":0,"byteOffset":147196,"byteLength":4},{"buffer":0,"byteOffset":147200,"byteLength":12},{"buffer":0,"byteOffset":147212,"byteLength":4},{"buffer":0,"byteOffset":147216,"byteLength":12},{"buffer":0,"byteOffset":147228,"byteLength":4},{"buffer":0,"byteOffset":147232,"byteLength":16},{"buffer":0,"byteOffset":147248,"byteLength":4},{"buffer":0,"byteOffset":147252,"byteLength":12},{"buffer":0,"byteOffset":147264,"byteLength":4},{"buffer":0,"byteOffset":147268,"byteLength":12},{"buffer":0,"byteOffset":147280,"byteLength":172},{"buffer":0,"byteOffset":147452,"byteLength":688},{"buffer":0,"byteOffset":148140,"byteLength":4},{"buffer":0,"byteOffset":148144,"byteLength":12},{"buffer":0,"byteOffset":148156,"byteLength":4},{"buffer":0,"byteOffset":148160,"byteLength":12},{"buffer":0,"byteOffset":148172,"byteLength":4},{"buffer":0,"byteOffset":148176,"byteLength":16},{"buffer":0,"byteOffset":148192,"byteLength":4},{"buffer":0,"byteOffset":148196,"byteLength":12}],"accessors":[{"bufferView":0,"componentType":5126,"count":1412,"type":"VEC3","min":[-5.107945919036865,-1.0355496406555176,0.39603888988494873],"max":[3.8097429275512695,-0.100429467856884,2.1305179595947266]},{"bufferView":1,"componentType":5126,"count":1412,"type":"VEC3"},{"bufferView":2,"componentType":5126,"count":1412,"type":"VEC4"},{"bufferView":3,"componentType":5126,"count":1412,"type":"VEC2"},{"bufferView":4,"componentType":5123,"count":1412,"type":"VEC4"},{"bufferView":5,"componentType":5126,"count":1412,"type":"VEC4"},{"bufferView":6,"componentType":5123,"count":1412,"type":"VEC4"},{"bufferView":7,"componentType":5126,"count":1412,"type":"VEC4"},{"bufferView":8,"componentType":5125,"count":2442,"type":"SCALAR"},{"bufferView":9,"componentType":5126,"count":8,"type":"MAT4"},{"bufferView":8,"byteOffset":0,"componentType":5125,"count":702,"type":"SCALAR"},{"bufferView":8,"byteOffset":2808,"componentType":5125,"count":1740,"type":"SCALAR"},{"bufferView":10,"componentType":5126,"count":1,"type":"SCALAR","min":[0.0],"max":[0.0]},{"bufferView":11,"componentType":5126,"count":1,"type":"VEC3"},{"bufferView":12,"componentType":5126,"count":1,"type":"SCALAR","min":[0.0],"max":[0.0]},{"bufferView":13,"componentType":5126,"count":1,"type":"VEC4"},{"bufferView":14,"componentType":5126,"count":1,"type":"SCALAR","min":[0.0],"max":[0.0]},{"bufferView":15,"componentType":5126,"count":1,"type":"VEC3"},{"bufferView":16,"componentType":5126,"count":1,"type":"SCALAR","min":[0.0],"max":[0.0]},{"bufferView":17,"componentType":5126,"count":1,"type":"VEC3"},{"bufferView":18,"componentType":5126,"count":1,"type":"SCALAR","min":[0.0],"max":[0.0]},{"bufferView":19,"componentType":5126,"count":1,"type":"VEC4"},{"bufferView":20,"componentType":5126,"count":1,"type":"SCALAR","min":[0.0],"max":[0.0]},{"bufferView":21,"componentType":5126,"count":1,"type":"VEC3"},{"bufferView":22,"componentType":5126,"count":1,"type":"SCALAR","min":[0.0],"max":[0.0]},{"bufferView":23,"componentType":5126,"count":1,"type":"VEC3"},{"bufferView":24,"componentType":5126,"count":29,"type":"SCALAR","min":[0.0],"max":[2.933703757587219]},{"bufferView":25,"componentType":5126,"count":29,"type":"VEC4"},{"bufferView":26,"componentType":5126,"count":1,"type":"SCALAR","min":[0.0],"max":[0.0]},{"bufferView":27,"componentType":5126,"count":1,"type":"VEC3"},{"bufferView":28,"componentType":5126,"count":1,"type":"SCALAR","min":[0.0],"max":[0.0]},{"bufferView":29,"componentType":5126,"count":1,"type":"VEC3"},{"bufferView":30,"componentType":5126,"count":1,"type":"SCALAR","min":[0.0],"max":[0.0]},{"bufferView":31,"componentType":5126,"count":1,"type":"VEC4"},{"bufferView":32,"componentType":5126,"count":1,"type":"SCALAR","min":[0.0],"max":[0.0]},{"bufferView":33,"componentType":5126,"count":1,"type":"VEC3"},{"bufferView":34,"componentType":5126,"count":1,"type":"SCALAR","min":[0.0],"max":[0.0]},{"bufferView":35,"componentType":5126,"count":1,"type":"VEC3"},{"bufferView":36,"componentType":5126,"count":29,"type":"SCALAR","min":[0.0],"max":[2.933703757587219]},{"bufferView":37,"componentType":5126,"count":29,"type":"VEC4"},{"bufferView":38,"componentType":5126,"count":1,"type":"SCALAR","min":[0.0],"max":[0.0]},{"bufferView":39,"componentType":5126,"count":1,"type":"VEC3"},{"bufferView":40,"componentType":5126,"count":1,"type":"SCALAR","min":[0.0],"max":[0.0]},{"bufferView":41,"componentType":5126,"count":1,"type":"VEC3"},{"bufferView":42,"componentType":5126,"count":1,"type":"SCALAR","min":[0.0],"max":[0.0]},{"bufferView":43,"componentType":5126,"count":1,"type":"VEC4"},{"bufferView":44,"componentType":5126,"count":1,"type":"SCALAR","min":[0.0],"max":[0.0]},{"bufferView":45,"componentType":5126,"count":1,"type":"VEC3"},{"bufferView":46,"componentType":5126,"count":1,"type":"SCALAR","min":[0.0],"max":[0.0]},{"bufferView":47,"componentType":5126,"count":1,"type":"VEC3"},{"bufferView":48,"componentType":5126,"count":43,"type":"SCALAR","min":[0.0],"max":[2.933703757587219]},{"bufferView":49,"componentType":5126,"count":43,"type":"VEC4"},{"bufferView":50,"componentType":5126,"count":1,"type":"SCALAR","min":[0.0],"max":[0.0]},{"bufferView":51,"componentType":5126,"count":1,"type":"VEC3"},{"bufferView":52,"componentType":5126,"count":1,"type":"SCALAR","min":[0.0],"max":[0.0]},{"bufferView":53,"componentType":5126,"count":1,"type":"VEC3"},{"bufferView":54,"componentType":5126,"count":1,"type":"SCALAR","min":[0.0],"max":[0.0]},{"bufferView":55,"componentType":5126,"count":1,"type":"VEC4"},{"bufferView":56,"componentType":5126,"count":1,"type":"SCALAR","min":[0.0],"max":[0.0]},{"bufferView":57,"componentType":5126,"count":1,"type":"VEC3"}]}