{"asset":{"version":"2.0","generator":"XZIEL complete XZRG/XZSK/XZAN -> Godot glTF bridge"},"scene":0,"scenes":[{"name":"untitled_Source","nodes":[0,5]}],"nodes":[{"name":"Armature_006","translation":[0.0,-0.0,0.0],"rotation":[-0.0,0.0,-0.0,1.0],"scale":[1.0,1.0,1.0],"children":[1]},{"name":"tag_origin","translation":[0.0,0.0,0.0],"rotation":[-0.7071067811865475,-1.2101618581171141e-08,-1.2101617692992707e-08,-0.7071067811865475],"scale":[1.0,1.0,1.0],"children":[2]},{"name":"tag_animate","translation":[0.0,0.0,0.0],"rotation":[2.2737367036103438e-15,-1.986349047637146e-25,6.776263426573109e-23,-1.0],"scale":[1.0,1.0,1.0],"children":[3]},{"name":"j_hinge","translation":[-1.5214586923661955e-08,-0.3111499845981598,0.4444999098777771],"rotation":[-3.5153224331452267e-08,1.7114272665708076e-08,-4.460258448048409e-16,-0.9999999999999993],"scale":[1.0,1.0,1.0],"children":[4]},{"name":"j_hinge_end","translation":[2.1220610506134108e-05,0.7961317300796509,-0.18842458724975586],"rotation":[-3.2432097207083105e-05,-0.7330108283377611,-0.680216967913602,3.240639124883771e-05],"scale":[1.0000004768371582,1.000000238418579,1.0000001192092896]},{"name":"untitled_SourceMesh","mesh":0,"skin":0}],"meshes":[{"name":"untitled_SourceMesh","primitives":[{"attributes":{"POSITION":0,"NORMAL":1,"TANGENT":2,"TEXCOORD_0":3,"JOINTS_0":4,"WEIGHTS_0":5,"JOINTS_1":6,"WEIGHTS_1":7},"indices":10,"material":0,"mode":4},{"attributes":{"POSITION":0,"NORMAL":1,"TANGENT":2,"TEXCOORD_0":3,"JOINTS_0":4,"WEIGHTS_0":5,"JOINTS_1":6,"WEIGHTS_1":7},"indices":11,"material":1,"mode":4},{"attributes":{"POSITION":0,"NORMAL":1,"TANGENT":2,"TEXCOORD_0":3,"JOINTS_0":4,"WEIGHTS_0":5,"JOINTS_1":6,"WEIGHTS_1":7},"indices":12,"material":2,"mode":4},{"attributes":{"POSITION":0,"NORMAL":1,"TANGENT":2,"TEXCOORD_0":3,"JOINTS_0":4,"WEIGHTS_0":5,"JOINTS_1":6,"WEIGHTS_1":7},"indices":13,"material":3,"mode":4},{"attributes":{"POSITION":0,"NORMAL":1,"TANGENT":2,"TEXCOORD_0":3,"JOINTS_0":4,"WEIGHTS_0":5,"JOINTS_1":6,"WEIGHTS_1":7},"indices":14,"material":4,"mode":4},{"attributes":{"POSITION":0,"NORMAL":1,"TANGENT":2,"TEXCOORD_0":3,"JOINTS_0":4,"WEIGHTS_0":5,"JOINTS_1":6,"WEIGHTS_1":7},"indices":15,"material":5,"mode":4},{"attributes":{"POSITION":0,"NORMAL":1,"TANGENT":2,"TEXCOORD_0":3,"JOINTS_0":4,"WEIGHTS_0":5,"JOINTS_1":6,"WEIGHTS_1":7},"indices":16,"material":6,"mode":4}]}],"skins":[{"name":"untitled_SourceSkin","joints":[0,1,2,3,4],"skeleton":0,"inverseBindMatrices":9}],"materials":[{"name":"SourceMaterial_00","pbrMetallicRoughness":{"baseColorFactor":[0.72,0.72,0.72,1.0],"metallicFactor":0.0,"roughnessFactor":0.75}},{"name":"SourceMaterial_01","pbrMetallicRoughness":{"baseColorFactor":[0.72,0.72,0.72,1.0],"metallicFactor":0.0,"roughnessFactor":0.75}},{"name":"SourceMaterial_02","pbrMetallicRoughness":{"baseColorFactor":[0.72,0.72,0.72,1.0],"metallicFactor":0.0,"roughnessFactor":0.75}},{"name":"SourceMaterial_03","pbrMetallicRoughness":{"baseColorFactor":[0.72,0.72,0.72,1.0],"metallicFactor":0.0,"roughnessFactor":0.75}},{"name":"SourceMaterial_04","pbrMetallicRoughness":{"baseColorFactor":[0.72,0.72,0.72,1.0],"metallicFactor":0.0,"roughnessFactor":0.75}},{"name":"SourceMaterial_05","pbrMetallicRoughness":{"baseColorFactor":[0.72,0.72,0.72,1.0],"metallicFactor":0.0,"roughnessFactor":0.75}},{"name":"SourceMaterial_06","pbrMetallicRoughness":{"baseColorFactor":[0.72,0.72,0.72,1.0],"metallicFactor":0.0,"roughnessFactor":0.75}}],"animations":[{"name":"arrive","samplers":[{"input":17,"output":18,"interpolation":"LINEAR"},{"input":19,"output":20,"interpolation":"LINEAR"},{"input":21,"output":22,"interpolation":"LINEAR"},{"input":23,"output":24,"interpolation":"LINEAR"},{"input":25,"output":26,"interpolation":"LINEAR"},{"input":27,"output":28,"interpolation":"LINEAR"},{"input":29,"output":30,"interpolation":"LINEAR"},{"input":31,"output":32,"interpolation":"LINEAR"},{"input":33,"output":34,"interpolation":"LINEAR"},{"input":35,"output":36,"interpolation":"LINEAR"},{"input":37,"output":38,"interpolation":"LINEAR"},{"input":39,"output":40,"interpolation":"LINEAR"},{"input":41,"output":42,"interpolation":"LINEAR"},{"input":43,"output":44,"interpolation":"LINEAR"},{"input":45,"output":46,"interpolation":"LINEAR"}],"channels":[{"sampler":0,"target":{"node":0,"path":"translation"}},{"sampler":1,"target":{"node":0,"path":"rotation"}},{"sampler":2,"target":{"node":0,"path":"scale"}},{"sampler":3,"target":{"node":1,"path":"translation"}},{"sampler":4,"target":{"node":1,"path":"rotation"}},{"sampler":5,"target":{"node":1,"path":"scale"}},{"sampler":6,"target":{"node":2,"path":"translation"}},{"sampler":7,"target":{"node":2,"path":"rotation"}},{"sampler":8,"target":{"node":2,"path":"scale"}},{"sampler":9,"target":{"node":3,"path":"translation"}},{"sampler":10,"target":{"node":3,"path":"rotation"}},{"sampler":11,"target":{"node":3,"path":"scale"}},{"sampler":12,"target":{"node":4,"path":"translation"}},{"sampler":13,"target":{"node":4,"path":"rotation"}},{"sampler":14,"target":{"node":4,"path":"scale"}}]},{"name":"close","samplers":[{"input":47,"output":48,"interpolation":"LINEAR"},{"input":49,"output":50,"interpolation":"LINEAR"},{"input":51,"output":52,"interpolation":"LINEAR"},{"input":53,"output":54,"interpolation":"LINEAR"},{"input":55,"output":56,"interpolation":"LINEAR"},{"input":57,"output":58,"interpolation":"LINEAR"},{"input":59,"output":60,"interpolation":"LINEAR"},{"input":61,"output":62,"interpolation":"LINEAR"},{"input":63,"output":64,"interpolation":"LINEAR"},{"input":65,"output":66,"interpolation":"LINEAR"},{"input":67,"output":68,"interpolation":"LINEAR"},{"input":69,"output":70,"interpolation":"LINEAR"},{"input":71,"output":72,"interpolation":"LINEAR"},{"input":73,"output":74,"interpolation":"LINEAR"},{"input":75,"output":76,"interpolation":"LINEAR"}],"channels":[{"sampler":0,"target":{"node":0,"path":"translation"}},{"sampler":1,"target":{"node":0,"path":"rotation"}},{"sampler":2,"target":{"node":0,"path":"scale"}},{"sampler":3,"target":{"node":1,"path":"translation"}},{"sampler":4,"target":{"node":1,"path":"rotation"}},{"sampler":5,"target":{"node":1,"path":"scale"}},{"sampler":6,"target":{"node":2,"path":"translation"}},{"sampler":7,"target":{"node":2,"path":"rotation"}},{"sampler":8,"target":{"node":2,"path":"scale"}},{"sampler":9,"target":{"node":3,"path":"translation"}},{"sampler":10,"target":{"node":3,"path":"rotation"}},{"sampler":11,"target":{"node":3,"path":"scale"}},{"sampler":12,"target":{"node":4,"path":"translation"}},{"sampler":13,"target":{"node":4,"path":"rotation"}},{"sampler":14,"target":{"node":4,"path":"scale"}}]},{"name":"leave","samplers":[{"input":77,"output":78,"interpolation":"LINEAR"},{"input":79,"output":80,"interpolation":"LINEAR"},{"input":81,"output":82,"interpolation":"LINEAR"},{"input":83,"output":84,"interpolation":"LINEAR"},{"input":85,"output":86,"interpolation":"LINEAR"},{"input":87,"output":88,"interpolation":"LINEAR"},{"input":89,"output":90,"interpolation":"LINEAR"},{"input":91,"output":92,"interpolation":"LINEAR"},{"input":93,"output":94,"interpolation":"LINEAR"},{"input":95,"output":96,"interpolation":"LINEAR"},{"input":97,"output":98,"interpolation":"LINEAR"},{"input":99,"output":100,"interpolation":"LINEAR"},{"input":101,"output":102,"interpolation":"LINEAR"},{"input":103,"output":104,"interpolation":"LINEAR"},{"input":105,"output":106,"interpolation":"LINEAR"}],"channels":[{"sampler":0,"target":{"node":0,"path":"translation"}},{"sampler":1,"target":{"node":0,"path":"rotation"}},{"sampler":2,"target":{"node":0,"path":"scale"}},{"sampler":3,"target":{"node":1,"path":"translation"}},{"sampler":4,"target":{"node":1,"path":"rotation"}},{"sampler":5,"target":{"node":1,"path":"scale"}},{"sampler":6,"target":{"node":2,"path":"translation"}},{"sampler":7,"target":{"node":2,"path":"rotation"}},{"sampler":8,"target":{"node":2,"path":"scale"}},{"sampler":9,"target":{"node":3,"path":"translation"}},{"sampler":10,"target":{"node":3,"path":"rotation"}},{"sampler":11,"target":{"node":3,"path":"scale"}},{"sampler":12,"target":{"node":4,"path":"translation"}},{"sampler":13,"target":{"node":4,"path":"rotation"}},{"sampler":14,"target":{"node":4,"path":"scale"}}]},{"name":"open","samplers":[{"input":107,"output":108,"interpolation":"LINEAR"},{"input":109,"output":110,"interpolation":"LINEAR"},{"input":111,"output":112,"interpolation":"LINEAR"},{"input":113,"output":114,"interpolation":"LINEAR"},{"input":115,"output":116,"interpolation":"LINEAR"},{"input":117,"output":118,"interpolation":"LINEAR"},{"input":119,"output":120,"interpolation":"LINEAR"},{"input":121,"output":122,"interpolation":"LINEAR"},{"input":123,"output":124,"interpolation":"LINEAR"},{"input":125,"output":126,"interpolation":"LINEAR"},{"input":127,"output":128,"interpolation":"LINEAR"},{"input":129,"output":130,"interpolation":"LINEAR"},{"input":131,"output":132,"interpolation":"LINEAR"},{"input":133,"output":134,"interpolation":"LINEAR"},{"input":135,"output":136,"interpolation":"LINEAR"}],"channels":[{"sampler":0,"target":{"node":0,"path":"translation"}},{"sampler":1,"target":{"node":0,"path":"rotation"}},{"sampler":2,"target":{"node":0,"path":"scale"}},{"sampler":3,"target":{"node":1,"path":"translation"}},{"sampler":4,"target":{"node":1,"path":"rotation"}},{"sampler":5,"target":{"node":1,"path":"scale"}},{"sampler":6,"target":{"node":2,"path":"translation"}},{"sampler":7,"target":{"node":2,"path":"rotation"}},{"sampler":8,"target":{"node":2,"path":"scale"}},{"sampler":9,"target":{"node":3,"path":"translation"}},{"sampler":10,"target":{"node":3,"path":"rotation"}},{"sampler":11,"target":{"node":3,"path":"scale"}},{"sampler":12,"target":{"node":4,"path":"translation"}},{"sampler":13,"target":{"node":4,"path":"rotation"}},{"sampler":14,"target":{"node":4,"path":"scale"}}]},{"name":"teddy_rise","samplers":[{"input":137,"output":138,"interpolation":"LINEAR"},{"input":139,"output":140,"interpolation":"LINEAR"},{"input":141,"output":142,"interpolation":"LINEAR"},{"input":143,"output":144,"interpolation":"LINEAR"},{"input":145,"output":146,"interpolation":"LINEAR"},{"input":147,"output":148,"interpolation":"LINEAR"},{"input":149,"output":150,"interpolation":"LINEAR"},{"input":151,"output":152,"interpolation":"LINEAR"},{"input":153,"output":154,"interpolation":"LINEAR"},{"input":155,"output":156,"interpolation":"LINEAR"},{"input":157,"output":158,"interpolation":"LINEAR"},{"input":159,"output":160,"interpolation":"LINEAR"},{"input":161,"output":162,"interpolation":"LINEAR"},{"input":163,"output":164,"interpolation":"LINEAR"},{"input":165,"output":166,"interpolation":"LINEAR"}],"channels":[{"sampler":0,"target":{"node":0,"path":"translation"}},{"sampler":1,"target":{"node":0,"path":"rotation"}},{"sampler":2,"target":{"node":0,"path":"scale"}},{"sampler":3,"target":{"node":1,"path":"translation"}},{"sampler":4,"target":{"node":1,"path":"rotation"}},{"sampler":5,"target":{"node":1,"path":"scale"}},{"sampler":6,"target":{"node":2,"path":"translation"}},{"sampler":7,"target":{"node":2,"path":"rotation"}},{"sampler":8,"target":{"node":2,"path":"scale"}},{"sampler":9,"target":{"node":3,"path":"translation"}},{"sampler":10,"target":{"node":3,"path":"rotation"}},{"sampler":11,"target":{"node":3,"path":"scale"}},{"sampler":12,"target":{"node":4,"path":"translation"}},{"sampler":13,"target":{"node":4,"path":"rotation"}},{"sampler":14,"target":{"node":4,"path":"scale"}}]},{"name":"weapon_dual_rise","samplers":[{"input":167,"output":168,"interpolation":"LINEAR"},{"input":169,"output":170,"interpolation":"LINEAR"},{"input":171,"output":172,"interpolation":"LINEAR"},{"input":173,"output":174,"interpolation":"LINEAR"},{"input":175,"output":176,"interpolation":"LINEAR"},{"input":177,"output":178,"interpolation":"LINEAR"},{"input":179,"output":180,"interpolation":"LINEAR"},{"input":181,"output":182,"interpolation":"LINEAR"},{"input":183,"output":184,"interpolation":"LINEAR"},{"input":185,"output":186,"interpolation":"LINEAR"},{"input":187,"output":188,"interpolation":"LINEAR"},{"input":189,"output":190,"interpolation":"LINEAR"},{"input":191,"output":192,"interpolation":"LINEAR"},{"input":193,"output":194,"interpolation":"LINEAR"},{"input":195,"output":196,"interpolation":"LINEAR"}],"channels":[{"sampler":0,"target":{"node":0,"path":"translation"}},{"sampler":1,"target":{"node":0,"path":"rotation"}},{"sampler":2,"target":{"node":0,"path":"scale"}},{"sampler":3,"target":{"node":1,"path":"translation"}},{"sampler":4,"target":{"node":1,"path":"rotation"}},{"sampler":5,"target":{"node":1,"path":"scale"}},{"sampler":6,"target":{"node":2,"path":"translation"}},{"sampler":7,"target":{"node":2,"path":"rotation"}},{"sampler":8,"target":{"node":2,"path":"scale"}},{"sampler":9,"target":{"node":3,"path":"translation"}},{"sampler":10,"target":{"node":3,"path":"rotation"}},{"sampler":11,"target":{"node":3,"path":"scale"}},{"sampler":12,"target":{"node":4,"path":"translation"}},{"sampler":13,"target":{"node":4,"path":"rotation"}},{"sampler":14,"target":{"node":4,"path":"scale"}}]},{"name":"weapon_rise","samplers":[{"input":197,"output":198,"interpolation":"LINEAR"},{"input":199,"output":200,"interpolation":"LINEAR"},{"input":201,"output":202,"interpolation":"LINEAR"},{"input":203,"output":204,"interpolation":"LINEAR"},{"input":205,"output":206,"interpolation":"LINEAR"},{"input":207,"output":208,"interpolation":"LINEAR"},{"input":209,"output":210,"interpolation":"LINEAR"},{"input":211,"output":212,"interpolation":"LINEAR"},{"input":213,"output":214,"interpolation":"LINEAR"},{"input":215,"output":216,"interpolation":"LINEAR"},{"input":217,"output":218,"interpolation":"LINEAR"},{"input":219,"output":220,"interpolation":"LINEAR"},{"input":221,"output":222,"interpolation":"LINEAR"},{"input":223,"output":224,"interpolation":"LINEAR"},{"input":225,"output":226,"interpolation":"LINEAR"}],"channels":[{"sampler":0,"target":{"node":0,"path":"translation"}},{"sampler":1,"target":{"node":0,"path":"rotation"}},{"sampler":2,"target":{"node":0,"path":"scale"}},{"sampler":3,"target":{"node":1,"path":"translation"}},{"sampler":4,"target":{"node":1,"path":"rotation"}},{"sampler":5,"target":{"node":1,"path":"scale"}},{"sampler":6,"target":{"node":2,"path":"translation"}},{"sampler":7,"target":{"node":2,"path":"rotation"}},{"sampler":8,"target":{"node":2,"path":"scale"}},{"sampler":9,"target":{"node":3,"path":"translation"}},{"sampler":10,"target":{"node":3,"path":"rotation"}},{"sampler":11,"target":{"node":3,"path":"scale"}},{"sampler":12,"target":{"node":4,"path":"translation"}},{"sampler":13,"target":{"node":4,"path":"rotation"}},{"sampler":14,"target":{"node":4,"path":"scale"}}]}],"buffers":[{"byteLength":331900,"uri":"data:application/octet-stream;base64,"}],"bufferViews":[{"buffer":0,"byteOffset":0,"byteLength":34512,"target":34962},{"buffer":0,"byteOffset":34512,"byteLength":34512,"target":34962},{"buffer":0,"byteOffset":69024,"byteLength":46016,"target":34962},{"buffer":0,"byteOffset":115040,"byteLength":23008,"target":34962},{"buffer":0,"byteOffset":138048,"byteLength":23008,"target":34962},{"buffer":0,"byteOffset":161056,"byteLength":46016,"target":34962},{"buffer":0,"byteOffset":207072,"byteLength":23008,"target":34962},{"buffer":0,"byteOffset":230080,"byteLength":46016,"target":34962},{"buffer":0,"byteOffset":276096,"byteLength":35988,"target":34963},{"buffer":0,"byteOffset":312084,"byteLength":320},{"buffer":0,"byteOffset":312404,"byteLength":4},{"buffer":0,"byteOffset":312408,"byteLength":12},{"buffer":0,"byteOffset":312420,"byteLength":4},{"buffer":0,"byteOffset":312424,"byteLength":16},{"buffer":0,"byteOffset":312440,"byteLength":4},{"buffer":0,"byteOffset":312444,"byteLength":12},{"buffer":0,"byteOffset":312456,"byteLength":4},{"buffer":0,"byteOffset":312460,"byteLength":12},{"buffer":0,"byteOffset":312472,"byteLength":4},{"buffer":0,"byteOffset":312476,"byteLength":16},{"buffer":0,"byteOffset":312492,"byteLength":4},{"buffer":0,"byteOffset":312496,"byteLength":12},{"buffer":0,"byteOffset":312508,"byteLength":520},{"buffer":0,"byteOffset":313028,"byteLength":1560},{"buffer":0,"byteOffset":314588,"byteLength":468},{"buffer":0,"byteOffset":315056,"byteLength":1872},{"buffer":0,"byteOffset":316928,"byteLength":4},{"buffer":0,"byteOffset":316932,"byteLength":12},{"buffer":0,"byteOffset":316944,"byteLength":60},{"buffer":0,"byteOffset":317004,"byteLength":180},{"buffer":0,"byteOffset":317184,"byteLength":460},{"buffer":0,"byteOffset":317644,"byteLength":1840},{"buffer":0,"byteOffset":319484,"byteLength":4},{"buffer":0,"byteOffset":319488,"byteLength":12},{"buffer":0,"byteOffset":319500,"byteLength":4},{"buffer":0,"byteOffset":319504,"byteLength":12},{"buffer":0,"byteOffset":319516,"byteLength":4},{"buffer":0,"byteOffset":319520,"byteLength":16},{"buffer":0,"byteOffset":319536,"byteLength":4},{"buffer":0,"byteOffset":319540,"byteLength":12},{"buffer":0,"byteOffset":319552,"byteLength":4},{"buffer":0,"byteOffset":319556,"byteLength":12},{"buffer":0,"byteOffset":319568,"byteLength":4},{"buffer":0,"byteOffset":319572,"byteLength":16},{"buffer":0,"byteOffset":319588,"byteLength":4},{"buffer":0,"byteOffset":319592,"byteLength":12},{"buffer":0,"byteOffset":319604,"byteLength":4},{"buffer":0,"byteOffset":319608,"byteLength":12},{"buffer":0,"byteOffset":319620,"byteLength":4},{"buffer":0,"byteOffset":319624,"byteLength":16},{"buffer":0,"byteOffset":319640,"byteLength":4},{"buffer":0,"byteOffset":319644,"byteLength":12},{"buffer":0,"byteOffset":319656,"byteLength":4},{"buffer":0,"byteOffset":319660,"byteLength":12},{"buffer":0,"byteOffset":319672,"byteLength":4},{"buffer":0,"byteOffset":319676,"byteLength":16},{"buffer":0,"byteOffset":319692,"byteLength":4},{"buffer":0,"byteOffset":319696,"byteLength":12},{"buffer":0,"byteOffset":319708,"byteLength":4},{"buffer":0,"byteOffset":319712,"byteLength":12},{"buffer":0,"byteOffset":319724,"byteLength":76},{"buffer":0,"byteOffset":319800,"byteLength":304},{"buffer":0,"byteOffset":320104,"byteLength":4},{"buffer":0,"byteOffset":320108,"byteLength":12},{"buffer":0,"byteOffset":320120,"byteLength":4},{"buffer":0,"byteOffset":320124,"byteLength":12},{"buffer":0,"byteOffset":320136,"byteLength":4},{"buffer":0,"byteOffset":320140,"byteLength":16},{"buffer":0,"byteOffset":320156,"byteLength":4},{"buffer":0,"byteOffset":320160,"byteLength":12},{"buffer":0,"byteOffset":320172,"byteLength":4},{"buffer":0,"byteOffset":320176,"byteLength":12},{"buffer":0,"byteOffset":320188,"byteLength":4},{"buffer":0,"byteOffset":320192,"byteLength":16},{"buffer":0,"byteOffset":320208,"byteLength":4},{"buffer":0,"byteOffset":320212,"byteLength":12},{"buffer":0,"byteOffset":320224,"byteLength":360},{"buffer":0,"byteOffset":320584,"byteLength":1080},{"buffer":0,"byteOffset":321664,"byteLength":4},{"buffer":0,"byteOffset":321668,"byteLength":16},{"buffer":0,"byteOffset":321684,"byteLength":4},{"buffer":0,"byteOffset":321688,"byteLength":12},{"buffer":0,"byteOffset":321700,"byteLength":396},{"buffer":0,"byteOffset":322096,"byteLength":1188},{"buffer":0,"byteOffset":323284,"byteLength":436},{"buffer":0,"byteOffset":323720,"byteLength":1744},{"buffer":0,"byteOffset":325464,"byteLength":4},{"buffer":0,"byteOffset":325468,"byteLength":12},{"buffer":0,"byteOffset":325480,"byteLength":4},{"buffer":0,"byteOffset":325484,"byteLength":12},{"buffer":0,"byteOffset":325496,"byteLength":524},{"buffer":0,"byteOffset":326020,"byteLength":2096},{"buffer":0,"byteOffset":328116,"byteLength":4},{"buffer":0,"byteOffset":328120,"byteLength":12},{"buffer":0,"byteOffset":328132,"byteLength":4},{"buffer":0,"byteOffset":328136,"byteLength":12},{"buffer":0,"byteOffset":328148,"byteLength":4},{"buffer":0,"byteOffset":328152,"byteLength":16},{"buffer":0,"byteOffset":328168,"byteLength":4},{"buffer":0,"byteOffset":328172,"byteLength":12},{"buffer":0,"byteOffset":328184,"byteLength":4},{"buffer":0,"byteOffset":328188,"byteLength":12},{"buffer":0,"byteOffset":328200,"byteLength":4},{"buffer":0,"byteOffset":328204,"byteLength":16},{"buffer":0,"byteOffset":328220,"byteLength":4},{"buffer":0,"byteOffset":328224,"byteLength":12},{"buffer":0,"byteOffset":328236,"byteLength":4},{"buffer":0,"byteOffset":328240,"byteLength":12},{"buffer":0,"byteOffset":328252,"byteLength":4},{"buffer":0,"byteOffset":328256,"byteLength":16},{"buffer":0,"byteOffset":328272,"byteLength":4},{"buffer":0,"byteOffset":328276,"byteLength":12},{"buffer":0,"byteOffset":328288,"byteLength":4},{"buffer":0,"byteOffset":328292,"byteLength":12},{"buffer":0,"byteOffset":328304,"byteLength":4},{"buffer":0,"byteOffset":328308,"byteLength":16},{"buffer":0,"byteOffset":328324,"byteLength":4},{"buffer":0,"byteOffset":328328,"byteLength":12},{"buffer":0,"byteOffset":328340,"byteLength":4},{"buffer":0,"byteOffset":328344,"byteLength":12},{"buffer":0,"byteOffset":328356,"byteLength":104},{"buffer":0,"byteOffset":328460,"byteLength":416},{"buffer":0,"byteOffset":328876,"byteLength":4},{"buffer":0,"byteOffset":328880,"byteLength":12},{"buffer":0,"byteOffset":328892,"byteLength":4},{"buffer":0,"byteOffset":328896,"byteLength":12},{"buffer":0,"byteOffset":328908,"byteLength":4},{"buffer":0,"byteOffset":328912,"byteLength":16},{"buffer":0,"byteOffset":328928,"byteLength":4},{"buffer":0,"byteOffset":328932,"byteLength":12},{"buffer":0,"byteOffset":328944,"byteLength":4},{"buffer":0,"byteOffset":328948,"byteLength":12},{"buffer":0,"byteOffset":328960,"byteLength":4},{"buffer":0,"byteOffset":328964,"byteLength":16},{"buffer":0,"byteOffset":328980,"byteLength":4},{"buffer":0,"byteOffset":328984,"byteLength":12},{"buffer":0,"byteOffset":328996,"byteLength":328},{"buffer":0,"byteOffset":329324,"byteLength":984},{"buffer":0,"byteOffset":330308,"byteLength":4},{"buffer":0,"byteOffset":330312,"byteLength":16},{"buffer":0,"byteOffset":330328,"byteLength":4},{"buffer":0,"byteOffset":330332,"byteLength":12},{"buffer":0,"byteOffset":330344,"byteLength":4},{"buffer":0,"byteOffset":330348,"byteLength":12},{"buffer":0,"byteOffset":330360,"byteLength":4},{"buffer":0,"byteOffset":330364,"byteLength":16},{"buffer":0,"byteOffset":330380,"byteLength":4},{"buffer":0,"byteOffset":330384,"byteLength":12},{"buffer":0,"byteOffset":330396,"byteLength":8},{"buffer":0,"byteOffset":330404,"byteLength":24},{"buffer":0,"byteOffset":330428,"byteLength":4},{"buffer":0,"byteOffset":330432,"byteLength":16},{"buffer":0,"byteOffset":330448,"byteLength":4},{"buffer":0,"byteOffset":330452,"byteLength":12},{"buffer":0,"byteOffset":330464,"byteLength":4},{"buffer":0,"byteOffset":330468,"byteLength":12},{"buffer":0,"byteOffset":330480,"byteLength":4},{"buffer":0,"byteOffset":330484,"byteLength":16},{"buffer":0,"byteOffset":330500,"byteLength":4},{"buffer":0,"byteOffset":330504,"byteLength":12},{"buffer":0,"byteOffset":330516,"byteLength":4},{"buffer":0,"byteOffset":330520,"byteLength":12},{"buffer":0,"byteOffset":330532,"byteLength":4},{"buffer":0,"byteOffset":330536,"byteLength":16},{"buffer":0,"byteOffset":330552,"byteLength":4},{"buffer":0,"byteOffset":330556,"byteLength":12},{"buffer":0,"byteOffset":330568,"byteLength":112},{"buffer":0,"byteOffset":330680,"byteLength":336},{"buffer":0,"byteOffset":331016,"byteLength":4},{"buffer":0,"byteOffset":331020,"byteLength":16},{"buffer":0,"byteOffset":331036,"byteLength":4},{"buffer":0,"byteOffset":331040,"byteLength":12},{"buffer":0,"byteOffset":331052,"byteLength":4},{"buffer":0,"byteOffset":331056,"byteLength":12},{"buffer":0,"byteOffset":331068,"byteLength":4},{"buffer":0,"byteOffset":331072,"byteLength":16},{"buffer":0,"byteOffset":331088,"byteLength":4},{"buffer":0,"byteOffset":331092,"byteLength":12},{"buffer":0,"byteOffset":331104,"byteLength":4},{"buffer":0,"byteOffset":331108,"byteLength":12},{"buffer":0,"byteOffset":331120,"byteLength":4},{"buffer":0,"byteOffset":331124,"byteLength":16},{"buffer":0,"byteOffset":331140,"byteLength":4},{"buffer":0,"byteOffset":331144,"byteLength":12},{"buffer":0,"byteOffset":331156,"byteLength":4},{"buffer":0,"byteOffset":331160,"byteLength":12},{"buffer":0,"byteOffset":331172,"byteLength":4},{"buffer":0,"byteOffset":331176,"byteLength":16},{"buffer":0,"byteOffset":331192,"byteLength":4},{"buffer":0,"byteOffset":331196,"byteLength":12},{"buffer":0,"byteOffset":331208,"byteLength":4},{"buffer":0,"byteOffset":331212,"byteLength":12},{"buffer":0,"byteOffset":331224,"byteLength":4},{"buffer":0,"byteOffset":331228,"byteLength":16},{"buffer":0,"byteOffset":331244,"byteLength":4},{"buffer":0,"byteOffset":331248,"byteLength":12},{"buffer":0,"byteOffset":331260,"byteLength":112},{"buffer":0,"byteOffset":331372,"byteLength":336},{"buffer":0,"byteOffset":331708,"byteLength":4},{"buffer":0,"byteOffset":331712,"byteLength":16},{"buffer":0,"byteOffset":331728,"byteLength":4},{"buffer":0,"byteOffset":331732,"byteLength":12},{"buffer":0,"byteOffset":331744,"byteLength":4},{"buffer":0,"byteOffset":331748,"byteLength":12},{"buffer":0,"byteOffset":331760,"byteLength":4},{"buffer":0,"byteOffset":331764,"byteLength":16},{"buffer":0,"byteOffset":331780,"byteLength":4},{"buffer":0,"byteOffset":331784,"byteLength":12},{"buffer":0,"byteOffset":331796,"byteLength":4},{"buffer":0,"byteOffset":331800,"byteLength":12},{"buffer":0,"byteOffset":331812,"byteLength":4},{"buffer":0,"byteOffset":331816,"byteLength":16},{"buffer":0,"byteOffset":331832,"byteLength":4},{"buffer":0,"byteOffset":331836,"byteLength":12},{"buffer":0,"byteOffset":331848,"byteLength":4},{"buffer":0,"byteOffset":331852,"byteLength":12},{"buffer":0,"byteOffset":331864,"byteLength":4},{"buffer":0,"byteOffset":331868,"byteLength":16},{"buffer":0,"byteOffset":331884,"byteLength":4},{"buffer":0,"byteOffset":331888,"byteLength":12}],"accessors":[{"bufferView":0,"componentType":5126,"count":2876,"type":"VEC3","min":[-1.2013404369354248,-0.49127858877182007,-0.3191303014755249],"max":[1.2013404369354248,0.0023541715927422047,0.3555307388305664]},{"bufferView":1,"componentType":5126,"count":2876,"type":"VEC3"},{"bufferView":2,"componentType":5126,"count":2876,"type":"VEC4"},{"bufferView":3,"componentType":5126,"count":2876,"type":"VEC2"},{"bufferView":4,"componentType":5123,"count":2876,"type":"VEC4"},{"bufferView":5,"componentType":5126,"count":2876,"type":"VEC4"},{"bufferView":6,"componentType":5123,"count":2876,"type":"VEC4"},{"bufferView":7,"componentType":5126,"count":2876,"type":"VEC4"},{"bufferView":8,"componentType":5125,"count":8997,"type":"SCALAR"},{"bufferView":9,"componentType":5126,"count":5,"type":"MAT4"},{"bufferView":8,"byteOffset":0,"componentType":5125,"count":2136,"type":"SCALAR"},{"bufferView":8,"byteOffset":8544,"componentType":5125,"count":666,"type":"SCALAR"},{"bufferView":8,"byteOffset":11208,"componentType":5125,"count":3612,"type":"SCALAR"},{"bufferView":8,"byteOffset":25656,"componentType":5125,"count":1245,"type":"SCALAR"},{"bufferView":8,"byteOffset":30636,"componentType":5125,"count":1242,"type":"SCALAR"},{"bufferView":8,"byteOffset":35604,"componentType":5125,"count":48,"type":"SCALAR"},{"bufferView":8,"byteOffset":35796,"componentType":5125,"count":48,"type":"SCALAR"},{"bufferView":10,"componentType":5126,"count":1,"type":"SCALAR","min":[0.0],"max":[0.0]},{"bufferView":11,"componentType":5126,"count":1,"type":"VEC3"},{"bufferView":12,"componentType":5126,"count":1,"type":"SCALAR","min":[0.0],"max":[0.0]},{"bufferView":13,"componentType":5126,"count":1,"type":"VEC4"},{"bufferView":14,"componentType":5126,"count":1,"type":"SCALAR","min":[0.0],"max":[0.0]},{"bufferView":15,"componentType":5126,"count":1,"type":"VEC3"},{"bufferView":16,"componentType":5126,"count":1,"type":"SCALAR","min":[0.0],"max":[0.0]},{"bufferView":17,"componentType":5126,"count":1,"type":"VEC3"},{"bufferView":18,"componentType":5126,"count":1,"type":"SCALAR","min":[0.0],"max":[0.0]},{"bufferView":19,"componentType":5126,"count":1,"type":"VEC4"},{"bufferView":20,"componentType":5126,"count":1,"type":"SCALAR","min":[0.0],"max":[0.0]},{"bufferView":21,"componentType":5126,"count":1,"type":"VEC3"},{"bufferView":22,"componentType":5126,"count":130,"type":"SCALAR","min":[0.0],"max":[4.900223897647944]},{"bufferView":23,"componentType":5126,"count":130,"type":"VEC3"},{"bufferView":24,"componentType":5126,"count":117,"type":"SCALAR","min":[0.0],"max":[4.900223897647944]},{"bufferView":25,"componentType":5126,"count":117,"type":"VEC4"},{"bufferView":26,"componentType":5126,"count":1,"type":"SCALAR","min":[0.0],"max":[0.0]},{"bufferView":27,"componentType":5126,"count":1,"type":"VEC3"},{"bufferView":28,"componentType":5126,"count":15,"type":"SCALAR","min":[0.0],"max":[4.900223897647944]},{"bufferView":29,"componentType":5126,"count":15,"type":"VEC3"},{"bufferView":30,"componentType":5126,"count":115,"type":"SCALAR","min":[0.0],"max":[4.900223897647944]},{"bufferView":31,"componentType":5126,"count":115,"type":"VEC4"},{"bufferView":32,"componentType":5126,"count":1,"type":"SCALAR","min":[0.0],"max":[0.0]},{"bufferView":33,"componentType":5126,"count":1,"type":"VEC3"},{"bufferView":34,"componentType":5126,"count":1,"type":"SCALAR","min":[0.0],"max":[0.0]},{"bufferView":35,"componentType":5126,"count":1,"type":"VEC3"},{"bufferView":36,"componentType":5126,"count":1,"type":"SCALAR","min":[0.0],"max":[0.0]},{"bufferView":37,"componentType":5126,"count":1,"type":"VEC4"},{"bufferView":38,"componentType":5126,"count":1,"type":"SCALAR","min":[0.0],"max":[0.0]},{"bufferView":39,"componentType":5126,"count":1,"type":"VEC3"},{"bufferView":40,"componentType":5126,"count":1,"type":"SCALAR","min":[0.0],"max":[0.0]},{"bufferView":41,"componentType":5126,"count":1,"type":"VEC3"},{"bufferView":42,"componentType":5126,"count":1,"type":"SCALAR","min":[0.0],"max":[0.0]},{"bufferView":43,"componentType":5126,"count":1,"type":"VEC4"},{"bufferView":44,"componentType":5126,"count":1,"type":"SCALAR","min":[0.0],"max":[0.0]},{"bufferView":45,"componentType":5126,"count":1,"type":"VEC3"},{"bufferView":46,"componentType":5126,"count":1,"type":"SCALAR","min":[0.0],"max":[0.0]},{"bufferView":47,"componentType":5126,"count":1,"type":"VEC3"},{"bufferView":48,"componentType":5126,"count":1,"type":"SCALAR","min":[0.0],"max":[0.0]},{"bufferView":49,"componentType":5126,"count":1,"type":"VEC4"},{"bufferView":50,"componentType":5126,"count":1,"type":"SCALAR","min":[0.0],"max":[0.0]},{"bufferView":51,"componentType":5126,"count":1,"type":"VEC3"},{"bufferView":52,"componentType":5126,"count":1,"type":"SCALAR","min":[0.0],"max":[0.0]},{"bufferView":53,"componentType":5126,"count":1,"type":"VEC3"},{"bufferView":54,"componentType":5126,"count":1,"type":"SCALAR","min":[0.0],"max":[0.0]},{"bufferView":55,"componentType":5126,"count":1,"type":"VEC4"},{"bufferView":56,"componentType":5126,"count":1,"type":"SCALAR","min":[0.0],"max":[0.0]},{"bufferView":57,"componentType":5126,"count":1,"type":"VEC3"},{"bufferView":58,"componentType":5126,"count":1,"type":"SCALAR","min":[0.0],"max":[0.0]},{"bufferView":59,"componentType":5126,"count":1,"type":"VEC3"},{"bufferView":60,"componentType":5126,"count":19,"type":"SCALAR","min":[0.0],"max":[0.6000000238418579]},{"bufferView":61,"componentType":5126,"count":19,"type":"VEC4"},{"bufferView":62,"componentType":5126,"count":1,"type":"SCALAR","min":[0.0],"max":[0.0]},{"bufferView":63,"componentType":5126,"count":1,"type":"VEC3"},{"bufferView":64,"componentType":5126,"count":1,"type":"SCALAR","min":[0.0],"max":[0.0]},{"bufferView":65,"componentType":5126,"count":1,"type":"VEC3"},{"bufferView":66,"componentType":5126,"count":1,"type":"SCALAR","min":[0.0],"max":[0.0]},{"bufferView":67,"componentType":5126,"count":1,"type":"VEC4"},{"bufferView":68,"componentType":5126,"count":1,"type":"SCALAR","min":[0.0],"max":[0.0]},{"bufferView":69,"componentType":5126,"count":1,"type":"VEC3"},{"bufferView":70,"componentType":5126,"count":1,"type":"SCALAR","min":[0.0],"max":[0.0]},{"bufferView":71,"componentType":5126,"count":1,"type":"VEC3"},{"bufferView":72,"componentType":5126,"count":1,"type":"SCALAR","min":[0.0],"max":[0.0]},{"bufferView":73,"componentType":5126,"count":1,"type":"VEC4"},{"bufferView":74,"componentType":5126,"count":1,"type":"SCALAR","min":[0.0],"max":[0.0]},{"bufferView":75,"componentType":5126,"count":1,"type":"VEC3"},{"bufferView":76,"componentType":5126,"count":90,"type":"SCALAR","min":[0.0],"max":[7.466814190800482]},{"bufferView":77,"componentType":5126,"count":90,"type":"VEC3"},{"bufferView":78,"componentType":5126,"count":1,"type":"SCALAR","min":[0.0],"max":[0.0]},{"bufferView":79,"componentType":5126,"count":1,"type":"VEC4"},{"bufferView":80,"componentType":5126,"count":1,"type":"SCALAR","min":[0.0],"max":[0.0]},{"bufferView":81,"componentType":5126,"count":1,"type":"VEC3"},{"bufferView":82,"componentType":5126,"count":99,"type":"SCALAR","min":[0.0],"max":[7.466814190800482]},{"bufferView":83,"componentType":5126,"count":99,"type":"VEC3"},{"bufferView":84,"componentType":5126,"count":109,"type":"SCALAR","min":[0.0],"max":[7.466814190800482]},{"bufferView":85,"componentType":5126,"count":109,"type":"VEC4"},{"bufferView":86,"componentType":5126,"count":1,"type":"SCALAR","min":[0.0],"max":[0.0]},{"bufferView":87,"componentType":5126,"count":1,"type":"VEC3"},{"bufferView":88,"componentType":5126,"count":1,"type":"SCALAR","min":[0.0],"max":[0.0]},{"bufferView":89,"componentType":5126,"count":1,"type":"VEC3"},{"bufferView":90,"componentType":5126,"count":131,"type":"SCALAR","min":[0.0],"max":[7.466814190800482]},{"bufferView":91,"componentType":5126,"count":131,"type":"VEC4"},{"bufferView":92,"componentType":5126,"count":1,"type":"SCALAR","min":[0.0],"max":[0.0]},{"bufferView":93,"componentType":5126,"count":1,"type":"VEC3"},{"bufferView":94,"componentType":5126,"count":1,"type":"SCALAR","min":[0.0],"max":[0.0]},{"bufferView":95,"componentType":5126,"count":1,"type":"VEC3"},{"bufferView":96,"componentType":5126,"count":1,"type":"SCALAR","min":[0.0],"max":[0.0]},{"bufferView":97,"componentType":5126,"count":1,"type":"VEC4"},{"bufferView":98,"componentType":5126,"count":1,"type":"SCALAR","min":[0.0],"max":[0.0]},{"bufferView":99,"componentType":5126,"count":1,"type":"VEC3"},{"bufferView":100,"componentType":5126,"count":1,"type":"SCALAR","min":[0.0],"max":[0.0]},{"bufferView":101,"componentType":5126,"count":1,"type":"VEC3"},{"bufferView":102,"componentType":5126,"count":1,"type":"SCALAR","min":[0.0],"max":[0.0]},{"bufferView":103,"componentType":5126,"count":1,"type":"VEC4"},{"bufferView":104,"componentType":5126,"count":1,"type":"SCALAR","min":[0.0],"max":[0.0]},{"bufferView":105,"componentType":5126,"count":1,"type":"VEC3"},{"bufferView":106,"componentType":5126,"count":1,"type":"SCALAR","min":[0.0],"max":[0.0]},{"bufferView":107,"componentType":5126,"count":1,"type":"VEC3"},{"bufferView":108,"componentType":5126,"count":1,"type":"SCALAR","min":[0.0],"max":[0.0]},{"bufferView":109,"componentType":5126,"count":1,"type":"VEC4"},{"bufferView":110,"componentType":5126,"count":1,"type":"SCALAR","min":[0.0],"max":[0.0]},{"bufferView":111,"componentType":5126,"count":1,"type":"VEC3"},{"bufferView":112,"componentType":5126,"count":1,"type":"SCALAR","min":[0.0],"max":[0.0]},{"bufferView":113,"componentType":5126,"count":1,"type":"VEC3"},{"bufferView":114,"componentType":5126,"count":1,"type":"SCALAR","min":[0.0],"max":[0.0]},{"bufferView":115,"componentType":5126,"count":1,"type":"VEC4"},{"bufferView":116,"componentType":5126,"count":1,"type":"SCALAR","min":[0.0],"max":[0.0]},{"bufferView":117,"componentType":5126,"count":1,"type":"VEC3"},{"bufferView":118,"componentType":5126,"count":1,"type":"SCALAR","min":[0.0],"max":[0.0]},{"bufferView":119,"componentType":5126,"count":1,"type":"VEC3"},{"bufferView":120,"componentType":5126,"count":26,"type":"SCALAR","min":[0.0],"max":[0.8333333134651184]},{"bufferView":121,"componentType":5126,"count":26,"type":"VEC4"},{"bufferView":122,"componentType":5126,"count":1,"type":"SCALAR","min":[0.0],"max":[0.0]},{"bufferView":123,"componentType":5126,"count":1,"type":"VEC3"},{"bufferView":124,"componentType":5126,"count":1,"type":"SCALAR","min":[0.0],"max":[0.0]},{"bufferView":125,"componentType":5126,"count":1,"type":"VEC3"},{"bufferView":126,"componentType":5126,"count":1,"type":"SCALAR","min":[0.0],"max":[0.0]},{"bufferView":127,"componentType":5126,"count":1,"type":"VEC4"},{"bufferView":128,"componentType":5126,"count":1,"type":"SCALAR","min":[0.0],"max":[0.0]},{"bufferView":129,"componentType":5126,"count":1,"type":"VEC3"},{"bufferView":130,"componentType":5126,"count":1,"type":"SCALAR","min":[0.0],"max":[0.0]},{"bufferView":131,"componentType":5126,"count":1,"type":"VEC3"},{"bufferView":132,"componentType":5126,"count":1,"type":"SCALAR","min":[0.0],"max":[0.0]},{"bufferView":133,"componentType":5126,"count":1,"type":"VEC4"},{"bufferView":134,"componentType":5126,"count":1,"type":"SCALAR","min":[0.0],"max":[0.0]},{"bufferView":135,"componentType":5126,"count":1,"type":"VEC3"},{"bufferView":136,"componentType":5126,"count":82,"type":"SCALAR","min":[0.0],"max":[8.966789794116563]},{"bufferView":137,"componentType":5126,"count":82,"type":"VEC3"},{"bufferView":138,"componentType":5126,"count":1,"type":"SCALAR","min":[0.0],"max":[0.0]},{"bufferView":139,"componentType":5126,"count":1,"type":"VEC4"},{"bufferView":140,"componentType":5126,"count":1,"type":"SCALAR","min":[0.0],"max":[0.0]},{"bufferView":141,"componentType":5126,"count":1,"type":"VEC3"},{"bufferView":142,"componentType":5126,"count":1,"type":"SCALAR","min":[0.0],"max":[0.0]},{"bufferView":143,"componentType":5126,"count":1,"type":"VEC3"},{"bufferView":144,"componentType":5126,"count":1,"type":"SCALAR","min":[0.0],"max":[0.0]},{"bufferView":145,"componentType":5126,"count":1,"type":"VEC4"},{"bufferView":146,"componentType":5126,"count":1,"type":"SCALAR","min":[0.0],"max":[0.0]},{"bufferView":147,"componentType":5126,"count":1,"type":"VEC3"},{"bufferView":148,"componentType":5126,"count":2,"type":"SCALAR","min":[0.0],"max":[9.0]},{"bufferView":149,"componentType":5126,"count":2,"type":"VEC3"},{"bufferView":150,"componentType":5126,"count":1,"type":"SCALAR","min":[0.0],"max":[0.0]},{"bufferView":151,"componentType":5126,"count":1,"type":"VEC4"},{"bufferView":152,"componentType":5126,"count":1,"type":"SCALAR","min":[0.0],"max":[0.0]},{"bufferView":153,"componentType":5126,"count":1,"type":"VEC3"},{"bufferView":154,"componentType":5126,"count":1,"type":"SCALAR","min":[0.0],"max":[0.0]},{"bufferView":155,"componentType":5126,"count":1,"type":"VEC3"},{"bufferView":156,"componentType":5126,"count":1,"type":"SCALAR","min":[0.0],"max":[0.0]},{"bufferView":157,"componentType":5126,"count":1,"type":"VEC4"},{"bufferView":158,"componentType":5126,"count":1,"type":"SCALAR","min":[0.0],"max":[0.0]},{"bufferView":159,"componentType":5126,"count":1,"type":"VEC3"},{"bufferView":160,"componentType":5126,"count":1,"type":"SCALAR","min":[0.0],"max":[0.0]},{"bufferView":161,"componentType":5126,"count":1,"type":"VEC3"},{"bufferView":162,"componentType":5126,"count":1,"type":"SCALAR","min":[0.0],"max":[0.0]},{"bufferView":163,"componentType":5126,"count":1,"type":"VEC4"},{"bufferView":164,"componentType":5126,"count":1,"type":"SCALAR","min":[0.0],"max":[0.0]},{"bufferView":165,"componentType":5126,"count":1,"type":"VEC3"},{"bufferView":166,"componentType":5126,"count":28,"type":"SCALAR","min":[0.0],"max":[3.866949352559202]},{"bufferView":167,"componentType":5126,"count":28,"type":"VEC3"},{"bufferView":168,"componentType":5126,"count":1,"type":"SCALAR","min":[0.0],"max":[0.0]},{"bufferView":169,"componentType":5126,"count":1,"type":"VEC4"},{"bufferView":170,"componentType":5126,"count":1,"type":"SCALAR","min":[0.0],"max":[0.0]},{"bufferView":171,"componentType":5126,"count":1,"type":"VEC3"},{"bufferView":172,"componentType":5126,"count":1,"type":"SCALAR","min":[0.0],"max":[0.0]},{"bufferView":173,"componentType":5126,"count":1,"type":"VEC3"},{"bufferView":174,"componentType":5126,"count":1,"type":"SCALAR","min":[0.0],"max":[0.0]},{"bufferView":175,"componentType":5126,"count":1,"type":"VEC4"},{"bufferView":176,"componentType":5126,"count":1,"type":"SCALAR","min":[0.0],"max":[0.0]},{"bufferView":177,"componentType":5126,"count":1,"type":"VEC3"},{"bufferView":178,"componentType":5126,"count":1,"type":"SCALAR","min":[0.0],"max":[0.0]},{"bufferView":179,"componentType":5126,"count":1,"type":"VEC3"},{"bufferView":180,"componentType":5126,"count":1,"type":"SCALAR","min":[0.0],"max":[0.0]},{"bufferView":181,"componentType":5126,"count":1,"type":"VEC4"},{"bufferView":182,"componentType":5126,"count":1,"type":"SCALAR","min":[0.0],"max":[0.0]},{"bufferView":183,"componentType":5126,"count":1,"type":"VEC3"},{"bufferView":184,"componentType":5126,"count":1,"type":"SCALAR","min":[0.0],"max":[0.0]},{"bufferView":185,"componentType":5126,"count":1,"type":"VEC3"},{"bufferView":186,"componentType":5126,"count":1,"type":"SCALAR","min":[0.0],"max":[0.0]},{"bufferView":187,"componentType":5126,"count":1,"type":"VEC4"},{"bufferView":188,"componentType":5126,"count":1,"type":"SCALAR","min":[0.0],"max":[0.0]},{"bufferView":189,"componentType":5126,"count":1,"type":"VEC3"},{"bufferView":190,"componentType":5126,"count":1,"type":"SCALAR","min":[0.0],"max":[0.0]},{"bufferView":191,"componentType":5126,"count":1,"type":"VEC3"},{"bufferView":192,"componentType":5126,"count":1,"type":"SCALAR","min":[0.0],"max":[0.0]},{"bufferView":193,"componentType":5126,"count":1,"type":"VEC4"},{"bufferView":194,"componentType":5126,"count":1,"type":"SCALAR","min":[0.0],"max":[0.0]},{"bufferView":195,"componentType":5126,"count":1,"type":"VEC3"},{"bufferView":196,"componentType":5126,"count":28,"type":"SCALAR","min":[0.0],"max":[3.866949352559202]},{"bufferView":197,"componentType":5126,"count":28,"type":"VEC3"},{"bufferView":198,"componentType":5126,"count":1,"type":"SCALAR","min":[0.0],"max":[0.0]},{"bufferView":199,"componentType":5126,"count":1,"type":"VEC4"},{"bufferView":200,"componentType":5126,"count":1,"type":"SCALAR","min":[0.0],"max":[0.0]},{"bufferView":201,"componentType":5126,"count":1,"type":"VEC3"},{"bufferView":202,"componentType":5126,"count":1,"type":"SCALAR","min":[0.0],"max":[0.0]},{"bufferView":203,"componentType":5126,"count":1,"type":"VEC3"},{"bufferView":204,"componentType":5126,"count":1,"type":"SCALAR","min":[0.0],"max":[0.0]},{"bufferView":205,"componentType":5126,"count":1,"type":"VEC4"},{"bufferView":206,"componentType":5126,"count":1,"type":"SCALAR","min":[0.0],"max":[0.0]},{"bufferView":207,"componentType":5126,"count":1,"type":"VEC3"},{"bufferView":208,"componentType":5126,"count":1,"type":"SCALAR","min":[0.0],"max":[0.0]},{"bufferView":209,"componentType":5126,"count":1,"type":"VEC3"},{"bufferView":210,"componentType":5126,"count":1,"type":"SCALAR","min":[0.0],"max":[0.0]},{"bufferView":211,"componentType":5126,"count":1,"type":"VEC4"},{"bufferView":212,"componentType":5126,"count":1,"type":"SCALAR","min":[0.0],"max":[0.0]},{"bufferView":213,"componentType":5126,"count":1,"type":"VEC3"},{"bufferView":214,"componentType":5126,"count":1,"type":"SCALAR","min":[0.0],"max":[0.0]},{"bufferView":215,"componentType":5126,"count":1,"type":"VEC3"},{"bufferView":216,"componentType":5126,"count":1,"type":"SCALAR","min":[0.0],"max":[0.0]},{"bufferView":217,"componentType":5126,"count":1,"type":"VEC4"},{"bufferView":218,"componentType":5126,"count":1,"type":"SCALAR","min":[0.0],"max":[0.0]},{"bufferView":219,"componentType":5126,"count":1,"type":"VEC3"}]}