{"asset":{"version":"2.0","generator":"XZIEL complete XZRG/XZSK/XZAN -> Godot glTF bridge"},"scene":0,"scenes":[{"name":"untitled_Source","nodes":[0,10]}],"nodes":[{"name":"fxanim_zom_nuketown_shutters_mod_LOD0","translation":[0.0,-0.0,0.0],"rotation":[-0.0,0.0,-0.0,1.0],"scale":[1.0,1.0,1.0],"children":[1]},{"name":"tag_origin","translation":[0.0,0.0,0.0],"rotation":[-0.0,-0.0,-0.0,-1.0],"scale":[1.0,1.0,1.0],"children":[2,4,6,8]},{"name":"shutter01_jnt","translation":[2.4192516803741455,-0.013535301201045513,0.8127999901771545],"rotation":[-0.0,0.0,0.09814668398004729,-0.9951719592229882],"scale":[1.0,1.0,1.0],"children":[3]},{"name":"shutter01_jnt_end","translation":[-4.98496490308753e-07,2.511998354748357e-05,2.201161919401784e-09],"rotation":[8.003791594086511e-08,1.5156502184857613e-08,-0.00945925641514523,-0.9999552602332096],"scale":[1.0,1.0,1.0]},{"name":"shutter02_jnt","translation":[-0.2032003402709961,-1.6588484186286223e-07,0.8127999901771545],"rotation":[-0.0,-0.0,-0.0,-1.0],"scale":[1.0,1.0,1.0],"children":[5]},{"name":"shutter02_jnt_end","translation":[5.065862183073477e-07,2.5127286789938807e-05,-4.055635601657448e-12],"rotation":[8.145615632239809e-08,8.253761456470648e-10,0.010132245588530684,-0.9999486674821497],"scale":[1.0,1.0,1.0]},{"name":"shutter03_jnt","translation":[-2.1040778160095215,0.0049375430680811405,0.0],"rotation":[-0.0,0.0,0.0030517908513728854,-0.9999953432754572],"scale":[1.0,1.0,1.0],"children":[7]},{"name":"shutter03_jnt_end","translation":[5.287682824928197e-07,2.4989629309857264e-05,-8.084985458900462e-10],"rotation":[8.144447547120628e-08,1.6073060545548565e-09,0.013628415666160963,-0.9999071288306848],"scale":[0.9999999403953552,1.0,1.0]},{"name":"shutter04_jnt","translation":[-4.824995994567871,0.020298730581998825,0.8257259130477905],"rotation":[-0.0,0.13052107313681952,-0.0,-0.9914455353004588],"scale":[1.0,1.0,1.0],"children":[9]},{"name":"shutter04_jnt_end","translation":[4.246264495577634e-07,2.513145955163054e-05,2.536485332882421e-08],"rotation":[-0.0005726587682929645,-0.00017221742994748637,0.008509663628268124,-0.9999636133520187],"scale":[0.9999998807907104,0.9999998807907104,0.9999999403953552]},{"name":"untitled_SourceMesh","mesh":0,"skin":0}],"meshes":[{"name":"untitled_SourceMesh","primitives":[{"attributes":{"POSITION":0,"NORMAL":1,"TANGENT":2,"TEXCOORD_0":3,"JOINTS_0":4,"WEIGHTS_0":5,"JOINTS_1":6,"WEIGHTS_1":7},"indices":10,"material":0,"mode":4},{"attributes":{"POSITION":0,"NORMAL":1,"TANGENT":2,"TEXCOORD_0":3,"JOINTS_0":4,"WEIGHTS_0":5,"JOINTS_1":6,"WEIGHTS_1":7},"indices":11,"material":1,"mode":4},{"attributes":{"POSITION":0,"NORMAL":1,"TANGENT":2,"TEXCOORD_0":3,"JOINTS_0":4,"WEIGHTS_0":5,"JOINTS_1":6,"WEIGHTS_1":7},"indices":12,"material":2,"mode":4},{"attributes":{"POSITION":0,"NORMAL":1,"TANGENT":2,"TEXCOORD_0":3,"JOINTS_0":4,"WEIGHTS_0":5,"JOINTS_1":6,"WEIGHTS_1":7},"indices":13,"material":3,"mode":4}]}],"skins":[{"name":"untitled_SourceSkin","joints":[0,1,2,3,4,5,6,7,8,9],"skeleton":0,"inverseBindMatrices":9}],"materials":[{"name":"SourceMaterial_00","pbrMetallicRoughness":{"baseColorFactor":[0.72,0.72,0.72,1.0],"metallicFactor":0.0,"roughnessFactor":0.75}},{"name":"SourceMaterial_01","pbrMetallicRoughness":{"baseColorFactor":[0.72,0.72,0.72,1.0],"metallicFactor":0.0,"roughnessFactor":0.75}},{"name":"SourceMaterial_02","pbrMetallicRoughness":{"baseColorFactor":[0.72,0.72,0.72,1.0],"metallicFactor":0.0,"roughnessFactor":0.75}},{"name":"SourceMaterial_03","pbrMetallicRoughness":{"baseColorFactor":[0.72,0.72,0.72,1.0],"metallicFactor":0.0,"roughnessFactor":0.75}}],"animations":[{"name":"untitled_Anim","samplers":[{"input":14,"output":15,"interpolation":"LINEAR"},{"input":16,"output":17,"interpolation":"LINEAR"},{"input":18,"output":19,"interpolation":"LINEAR"},{"input":20,"output":21,"interpolation":"LINEAR"},{"input":22,"output":23,"interpolation":"LINEAR"},{"input":24,"output":25,"interpolation":"LINEAR"},{"input":26,"output":27,"interpolation":"LINEAR"},{"input":28,"output":29,"interpolation":"LINEAR"},{"input":30,"output":31,"interpolation":"LINEAR"},{"input":32,"output":33,"interpolation":"LINEAR"},{"input":34,"output":35,"interpolation":"LINEAR"},{"input":36,"output":37,"interpolation":"LINEAR"},{"input":38,"output":39,"interpolation":"LINEAR"},{"input":40,"output":41,"interpolation":"LINEAR"},{"input":42,"output":43,"interpolation":"LINEAR"},{"input":44,"output":45,"interpolation":"LINEAR"},{"input":46,"output":47,"interpolation":"LINEAR"},{"input":48,"output":49,"interpolation":"LINEAR"},{"input":50,"output":51,"interpolation":"LINEAR"},{"input":52,"output":53,"interpolation":"LINEAR"},{"input":54,"output":55,"interpolation":"LINEAR"},{"input":56,"output":57,"interpolation":"LINEAR"},{"input":58,"output":59,"interpolation":"LINEAR"},{"input":60,"output":61,"interpolation":"LINEAR"},{"input":62,"output":63,"interpolation":"LINEAR"},{"input":64,"output":65,"interpolation":"LINEAR"},{"input":66,"output":67,"interpolation":"LINEAR"},{"input":68,"output":69,"interpolation":"LINEAR"},{"input":70,"output":71,"interpolation":"LINEAR"},{"input":72,"output":73,"interpolation":"LINEAR"}],"channels":[{"sampler":0,"target":{"node":0,"path":"translation"}},{"sampler":1,"target":{"node":0,"path":"rotation"}},{"sampler":2,"target":{"node":0,"path":"scale"}},{"sampler":3,"target":{"node":1,"path":"translation"}},{"sampler":4,"target":{"node":1,"path":"rotation"}},{"sampler":5,"target":{"node":1,"path":"scale"}},{"sampler":6,"target":{"node":2,"path":"translation"}},{"sampler":7,"target":{"node":2,"path":"rotation"}},{"sampler":8,"target":{"node":2,"path":"scale"}},{"sampler":9,"target":{"node":3,"path":"translation"}},{"sampler":10,"target":{"node":3,"path":"rotation"}},{"sampler":11,"target":{"node":3,"path":"scale"}},{"sampler":12,"target":{"node":4,"path":"translation"}},{"sampler":13,"target":{"node":4,"path":"rotation"}},{"sampler":14,"target":{"node":4,"path":"scale"}},{"sampler":15,"target":{"node":5,"path":"translation"}},{"sampler":16,"target":{"node":5,"path":"rotation"}},{"sampler":17,"target":{"node":5,"path":"scale"}},{"sampler":18,"target":{"node":6,"path":"translation"}},{"sampler":19,"target":{"node":6,"path":"rotation"}},{"sampler":20,"target":{"node":6,"path":"scale"}},{"sampler":21,"target":{"node":7,"path":"translation"}},{"sampler":22,"target":{"node":7,"path":"rotation"}},{"sampler":23,"target":{"node":7,"path":"scale"}},{"sampler":24,"target":{"node":8,"path":"translation"}},{"sampler":25,"target":{"node":8,"path":"rotation"}},{"sampler":26,"target":{"node":8,"path":"scale"}},{"sampler":27,"target":{"node":9,"path":"translation"}},{"sampler":28,"target":{"node":9,"path":"rotation"}},{"sampler":29,"target":{"node":9,"path":"scale"}}]}],"buffers":[{"byteLength":283408,"uri":"data:application/octet-stream;base64,"}],"bufferViews":[{"buffer":0,"byteOffset":0,"byteLength":32472,"target":34962},{"buffer":0,"byteOffset":32472,"byteLength":32472,"target":34962},{"buffer":0,"byteOffset":64944,"byteLength":43296,"target":34962},{"buffer":0,"byteOffset":108240,"byteLength":21648,"target":34962},{"buffer":0,"byteOffset":129888,"byteLength":21648,"target":34962},{"buffer":0,"byteOffset":151536,"byteLength":43296,"target":34962},{"buffer":0,"byteOffset":194832,"byteLength":21648,"target":34962},{"buffer":0,"byteOffset":216480,"byteLength":43296,"target":34962},{"buffer":0,"byteOffset":259776,"byteLength":20352,"target":34963},{"buffer":0,"byteOffset":280128,"byteLength":640},{"buffer":0,"byteOffset":280768,"byteLength":4},{"buffer":0,"byteOffset":280772,"byteLength":12},{"buffer":0,"byteOffset":280784,"byteLength":4},{"buffer":0,"byteOffset":280788,"byteLength":16},{"buffer":0,"byteOffset":280804,"byteLength":4},{"buffer":0,"byteOffset":280808,"byteLength":12},{"buffer":0,"byteOffset":280820,"byteLength":4},{"buffer":0,"byteOffset":280824,"byteLength":12},{"buffer":0,"byteOffset":280836,"byteLength":4},{"buffer":0,"byteOffset":280840,"byteLength":16},{"buffer":0,"byteOffset":280856,"byteLength":4},{"buffer":0,"byteOffset":280860,"byteLength":12},{"buffer":0,"byteOffset":280872,"byteLength":4},{"buffer":0,"byteOffset":280876,"byteLength":12},{"buffer":0,"byteOffset":280888,"byteLength":116},{"buffer":0,"byteOffset":281004,"byteLength":464},{"buffer":0,"byteOffset":281468,"byteLength":4},{"buffer":0,"byteOffset":281472,"byteLength":12},{"buffer":0,"byteOffset":281484,"byteLength":4},{"buffer":0,"byteOffset":281488,"byteLength":12},{"buffer":0,"byteOffset":281500,"byteLength":4},{"buffer":0,"byteOffset":281504,"byteLength":16},{"buffer":0,"byteOffset":281520,"byteLength":4},{"buffer":0,"byteOffset":281524,"byteLength":12},{"buffer":0,"byteOffset":281536,"byteLength":4},{"buffer":0,"byteOffset":281540,"byteLength":12},{"buffer":0,"byteOffset":281552,"byteLength":100},{"buffer":0,"byteOffset":281652,"byteLength":400},{"buffer":0,"byteOffset":282052,"byteLength":4},{"buffer":0,"byteOffset":282056,"byteLength":12},{"buffer":0,"byteOffset":282068,"byteLength":4},{"buffer":0,"byteOffset":282072,"byteLength":12},{"buffer":0,"byteOffset":282084,"byteLength":4},{"buffer":0,"byteOffset":282088,"byteLength":16},{"buffer":0,"byteOffset":282104,"byteLength":4},{"buffer":0,"byteOffset":282108,"byteLength":12},{"buffer":0,"byteOffset":282120,"byteLength":4},{"buffer":0,"byteOffset":282124,"byteLength":12},{"buffer":0,"byteOffset":282136,"byteLength":96},{"buffer":0,"byteOffset":282232,"byteLength":384},{"buffer":0,"byteOffset":282616,"byteLength":4},{"buffer":0,"byteOffset":282620,"byteLength":12},{"buffer":0,"byteOffset":282632,"byteLength":4},{"buffer":0,"byteOffset":282636,"byteLength":12},{"buffer":0,"byteOffset":282648,"byteLength":4},{"buffer":0,"byteOffset":282652,"byteLength":16},{"buffer":0,"byteOffset":282668,"byteLength":4},{"buffer":0,"byteOffset":282672,"byteLength":12},{"buffer":0,"byteOffset":282684,"byteLength":4},{"buffer":0,"byteOffset":282688,"byteLength":12},{"buffer":0,"byteOffset":282700,"byteLength":128},{"buffer":0,"byteOffset":282828,"byteLength":512},{"buffer":0,"byteOffset":283340,"byteLength":4},{"buffer":0,"byteOffset":283344,"byteLength":12},{"buffer":0,"byteOffset":283356,"byteLength":4},{"buffer":0,"byteOffset":283360,"byteLength":12},{"buffer":0,"byteOffset":283372,"byteLength":4},{"buffer":0,"byteOffset":283376,"byteLength":16},{"buffer":0,"byteOffset":283392,"byteLength":4},{"buffer":0,"byteOffset":283396,"byteLength":12}],"accessors":[{"bufferView":0,"componentType":5126,"count":2706,"type":"VEC3","min":[-5.965602874755859,-0.013535386882722378,-0.08900465071201324],"max":[3.34057879447937,0.22684870660305023,1.7272002696990967]},{"bufferView":1,"componentType":5126,"count":2706,"type":"VEC3"},{"bufferView":2,"componentType":5126,"count":2706,"type":"VEC4"},{"bufferView":3,"componentType":5126,"count":2706,"type":"VEC2"},{"bufferView":4,"componentType":5123,"count":2706,"type":"VEC4"},{"bufferView":5,"componentType":5126,"count":2706,"type":"VEC4"},{"bufferView":6,"componentType":5123,"count":2706,"type":"VEC4"},{"bufferView":7,"componentType":5126,"count":2706,"type":"VEC4"},{"bufferView":8,"componentType":5125,"count":5088,"type":"SCALAR"},{"bufferView":9,"componentType":5126,"count":10,"type":"MAT4"},{"bufferView":8,"byteOffset":0,"componentType":5125,"count":2520,"type":"SCALAR"},{"bufferView":8,"byteOffset":10080,"componentType":5125,"count":960,"type":"SCALAR"},{"bufferView":8,"byteOffset":13920,"componentType":5125,"count":1404,"type":"SCALAR"},{"bufferView":8,"byteOffset":19536,"componentType":5125,"count":204,"type":"SCALAR"},{"bufferView":10,"componentType":5126,"count":1,"type":"SCALAR","min":[0.0],"max":[0.0]},{"bufferView":11,"componentType":5126,"count":1,"type":"VEC3"},{"bufferView":12,"componentType":5126,"count":1,"type":"SCALAR","min":[0.0],"max":[0.0]},{"bufferView":13,"componentType":5126,"count":1,"type":"VEC4"},{"bufferView":14,"componentType":5126,"count":1,"type":"SCALAR","min":[0.0],"max":[0.0]},{"bufferView":15,"componentType":5126,"count":1,"type":"VEC3"},{"bufferView":16,"componentType":5126,"count":1,"type":"SCALAR","min":[0.0],"max":[0.0]},{"bufferView":17,"componentType":5126,"count":1,"type":"VEC3"},{"bufferView":18,"componentType":5126,"count":1,"type":"SCALAR","min":[0.0],"max":[0.0]},{"bufferView":19,"componentType":5126,"count":1,"type":"VEC4"},{"bufferView":20,"componentType":5126,"count":1,"type":"SCALAR","min":[0.0],"max":[0.0]},{"bufferView":21,"componentType":5126,"count":1,"type":"VEC3"},{"bufferView":22,"componentType":5126,"count":1,"type":"SCALAR","min":[0.0],"max":[0.0]},{"bufferView":23,"componentType":5126,"count":1,"type":"VEC3"},{"bufferView":24,"componentType":5126,"count":29,"type":"SCALAR","min":[0.0],"max":[2.933703757587219]},{"bufferView":25,"componentType":5126,"count":29,"type":"VEC4"},{"bufferView":26,"componentType":5126,"count":1,"type":"SCALAR","min":[0.0],"max":[0.0]},{"bufferView":27,"componentType":5126,"count":1,"type":"VEC3"},{"bufferView":28,"componentType":5126,"count":1,"type":"SCALAR","min":[0.0],"max":[0.0]},{"bufferView":29,"componentType":5126,"count":1,"type":"VEC3"},{"bufferView":30,"componentType":5126,"count":1,"type":"SCALAR","min":[0.0],"max":[0.0]},{"bufferView":31,"componentType":5126,"count":1,"type":"VEC4"},{"bufferView":32,"componentType":5126,"count":1,"type":"SCALAR","min":[0.0],"max":[0.0]},{"bufferView":33,"componentType":5126,"count":1,"type":"VEC3"},{"bufferView":34,"componentType":5126,"count":1,"type":"SCALAR","min":[0.0],"max":[0.0]},{"bufferView":35,"componentType":5126,"count":1,"type":"VEC3"},{"bufferView":36,"componentType":5126,"count":25,"type":"SCALAR","min":[0.0],"max":[2.933703757587219]},{"bufferView":37,"componentType":5126,"count":25,"type":"VEC4"},{"bufferView":38,"componentType":5126,"count":1,"type":"SCALAR","min":[0.0],"max":[0.0]},{"bufferView":39,"componentType":5126,"count":1,"type":"VEC3"},{"bufferView":40,"componentType":5126,"count":1,"type":"SCALAR","min":[0.0],"max":[0.0]},{"bufferView":41,"componentType":5126,"count":1,"type":"VEC3"},{"bufferView":42,"componentType":5126,"count":1,"type":"SCALAR","min":[0.0],"max":[0.0]},{"bufferView":43,"componentType":5126,"count":1,"type":"VEC4"},{"bufferView":44,"componentType":5126,"count":1,"type":"SCALAR","min":[0.0],"max":[0.0]},{"bufferView":45,"componentType":5126,"count":1,"type":"VEC3"},{"bufferView":46,"componentType":5126,"count":1,"type":"SCALAR","min":[0.0],"max":[0.0]},{"bufferView":47,"componentType":5126,"count":1,"type":"VEC3"},{"bufferView":48,"componentType":5126,"count":24,"type":"SCALAR","min":[0.0],"max":[2.933703757587219]},{"bufferView":49,"componentType":5126,"count":24,"type":"VEC4"},{"bufferView":50,"componentType":5126,"count":1,"type":"SCALAR","min":[0.0],"max":[0.0]},{"bufferView":51,"componentType":5126,"count":1,"type":"VEC3"},{"bufferView":52,"componentType":5126,"count":1,"type":"SCALAR","min":[0.0],"max":[0.0]},{"bufferView":53,"componentType":5126,"count":1,"type":"VEC3"},{"bufferView":54,"componentType":5126,"count":1,"type":"SCALAR","min":[0.0],"max":[0.0]},{"bufferView":55,"componentType":5126,"count":1,"type":"VEC4"},{"bufferView":56,"componentType":5126,"count":1,"type":"SCALAR","min":[0.0],"max":[0.0]},{"bufferView":57,"componentType":5126,"count":1,"type":"VEC3"},{"bufferView":58,"componentType":5126,"count":1,"type":"SCALAR","min":[0.0],"max":[0.0]},{"bufferView":59,"componentType":5126,"count":1,"type":"VEC3"},{"bufferView":60,"componentType":5126,"count":32,"type":"SCALAR","min":[0.0],"max":[2.933703757587219]},{"bufferView":61,"componentType":5126,"count":32,"type":"VEC4"},{"bufferView":62,"componentType":5126,"count":1,"type":"SCALAR","min":[0.0],"max":[0.0]},{"bufferView":63,"componentType":5126,"count":1,"type":"VEC3"},{"bufferView":64,"componentType":5126,"count":1,"type":"SCALAR","min":[0.0],"max":[0.0]},{"bufferView":65,"componentType":5126,"count":1,"type":"VEC3"},{"bufferView":66,"componentType":5126,"count":1,"type":"SCALAR","min":[0.0],"max":[0.0]},{"bufferView":67,"componentType":5126,"count":1,"type":"VEC4"},{"bufferView":68,"componentType":5126,"count":1,"type":"SCALAR","min":[0.0],"max":[0.0]},{"bufferView":69,"componentType":5126,"count":1,"type":"VEC3"}]}